:SAMPLES-PER-SECOND 30
:FULLY-SPECIFIED
:DEGREES
108
root  -15.5852 36.9989 -2.04413 -3.16427 -71.9436 -3.21307
RightUpLeg  -23.3928 -12.6263 10.1876
RightLeg  42.8311 -5.14435 -5.41632
RightFoot  -14.4343 -0.481026 -14.0212
RightToes  1.16414e-010 0 -3.6325e-017
Spine  10.6542 -3.08957 6.6652
Spine1  6.48199 -2.38126 3.12673
HEad  -10.0402 12.8055 -2.11787
LeftShoulder1  7.87282 -11.3499 -46.2218
LeftArm  -49.0137 2.35232 -10.7775
LeftForeArm  -13.671 -47.7221 -13.2541
LeftHand  -0.244104 0.0205437 5.32207
RightShoulder  4.32849 7.72991 32.5892
RightArm  -13.5517 -18.4632 38.1902
RightForeArm  -5.23395 36.0321 8.46695
RightHand  -2.73053 7.93407 -23.7818
LeftUpLeg  -6.99622 5.33644 7.58737
LeftLeg  74.8454 0.672154 3.92502
LeftFoot  3.64513 0.596361 -4.65565
LeftToes  -6.45774e-011 3.08606e-011 -5.1752e-012
109
root  -17.0776 37.676 -1.95245 -7.29916 -74.1428 1.53521
RightUpLeg  -19.2729 -13.1738 8.95043
RightLeg  39.4912 -3.82064 -3.66816
RightFoot  -14.7937 -0.561087 -15.3078
RightToes  1.16414e-010 0 -3.6325e-017
Spine  10.3809 -1.94176 6.96983
Spine1  6.78851 -0.371864 -0.221722
HEad  -10.3468 12.7197 -4.11081
LeftShoulder1  8.1916 -11.5309 -47.5464
LeftArm  -49.242 2.97499 -12.1284
LeftForeArm  -14.7378 -46.4401 -12.7411
LeftHand  -0.244104 0.0205437 5.32207
RightShoulder  4.2952 7.63292 32.6258
RightArm  -10.7026 -18.0726 39.902
RightForeArm  -4.05288 35.9847 8.38664
RightHand  -2.49711 7.2943 -22.868
LeftUpLeg  -12.9424 3.09489 5.59965
LeftLeg  77.2602 1.01148 6.59547
LeftFoot  2.637 0.224986 -1.98727
LeftToes  -6.45774e-011 3.08606e-011 -5.1752e-012
110
root  -18.5138 38.6577 -1.94951 -15.3186 -76.3159 10.1155
RightUpLeg  -13.978 -13.4791 6.64865
RightLeg  33.5711 -1.28678 -1.33844
RightFoot  -13.1701 -0.341407 -15.6921
RightToes  1.16414e-010 0 -3.6325e-017
Spine  10.7594 -0.962044 5.86136
Spine1  6.3133 1.24187 -3.11174
HEad  -9.94186 13.6543 -6.83846
LeftShoulder1  8.35026 -11.5717 -48.3447
LeftArm  -49.4772 4.8519 -13.358
LeftForeArm  -16.0556 -45.5092 -12.4179
LeftHand  -0.244104 0.0205437 5.32207
RightShoulder  4.32972 7.66194 32.8341
RightArm  -8.20719 -17.7674 41.6116
RightForeArm  -2.27325 35.9223 8.26642
RightHand  -2.15128 6.3194 -21.3981
LeftUpLeg  -17.4843 0.887248 3.16158
LeftLeg  74.599 1.43899 7.13675
LeftFoot  2.81279 0.0974514 -0.925483
LeftToes  -6.45774e-011 3.08606e-011 -5.1752e-012
111
root  -19.9369 39.7198 -1.99158 -24.9945 -77.6771 20.6456
RightUpLeg  -8.47517 -14.4477 3.76017
RightLeg  26.1651 2.48331 1.63169
RightFoot  -10.2018 0.0565681 -13.4146
RightToes  1.16414e-010 0 -3.6325e-017
Spine  10.7451 -0.206794 3.97936
Spine1  5.8004 2.22869 -5.24974
HEad  -9.42883 15.1495 -9.99291
LeftShoulder1  8.45253 -11.6105 -48.8134
LeftArm  -49.9352 7.34271 -14.445
LeftForeArm  -17.4347 -44.8263 -12.2107
LeftHand  -0.244104 0.0205437 5.32207
RightShoulder  4.40112 7.80254 32.9837
RightArm  -6.3921 -17.9069 43.0251
RightForeArm  -1.29789 36.8232 8.47885
RightHand  -1.88791 5.44288 -20.3304
LeftUpLeg  -21.1729 -1.36386 0.736563
LeftLeg  68.5989 2.22677 7.03575
LeftFoot  2.67886 -0.00666977 -0.0686163
LeftToes  -6.45774e-011 3.08606e-011 -5.1752e-012
112
root  -21.3788 40.6905 -2.06803 -36.773 -79.1076 33.9174
RightUpLeg  -3.95279 -12.092 0.733668
RightLeg  19.3283 0.566112 3.19532
RightFoot  -7.00014 0.270341 -8.43107
RightToes  1.16414e-010 0 -3.6325e-017
Spine  9.65395 0.922533 1.6873
Spine1  5.41237 3.28085 -6.93221
HEad  -8.94993 16.8885 -12.9137
LeftShoulder1  8.60566 -11.6401 -49.6012
LeftArm  -50.8412 9.8897 -14.9963
LeftForeArm  -18.0307 -44.6315 -12.1635
LeftHand  -0.244104 0.0205437 5.32207
RightShoulder  4.446 7.91379 32.9976
RightArm  -4.56397 -18.4105 43.3747
RightForeArm  -1.18213 38.8365 9.09574
RightHand  -1.68582 4.60038 -19.6852
LeftUpLeg  -24.2735 -1.8111 -1.11819
LeftLeg  60.1967 3.38617 6.94091
LeftFoot  1.32145 -0.00962077 -0.00107311
LeftToes  -6.45774e-011 3.08606e-011 -5.1752e-012
113
root  -22.7456 41.3813 -2.13533 -53.8098 -80.9988 52.5035
RightUpLeg  -1.11139 -10.6036 -1.13459
RightLeg  15.6686 -5.05252 2.71431
RightFoot  -4.95322 0.157632 -3.31013
RightToes  1.16414e-010 0 -3.6325e-017
Spine  8.53985 2.24343 0.288127
Spine1  4.6543 4.68168 -8.97482
HEad  -8.83635 18.9531 -15.2357
LeftShoulder1  8.6644 -11.5137 -50.354
LeftArm  -52.3889 12.2976 -14.9936
LeftForeArm  -17.521 -45.2713 -12.4018
LeftHand  -0.244104 0.0205437 5.32207
RightShoulder  4.48735 8.04647 32.9088
RightArm  -2.87279 -18.95 42.7584
RightForeArm  -0.249484 41.5243 9.93454
RightHand  -1.44974 3.54466 -18.9296
LeftUpLeg  -26.5931 0.0383587 -2.16195
LeftLeg  50.1866 4.03839 5.66049
LeftFoot  0.0364023 0.131345 -1.31908
LeftToes  -6.45774e-011 3.08606e-011 -5.1752e-012
114
root  -24.0133 41.6277 -2.14011 -75.7777 -82.2784 75.2263
RightUpLeg  1.18533 -11.8589 -2.56741
RightLeg  15.2432 -9.05476 1.69022
RightFoot  -4.71878 0.0224663 -0.904543
RightToes  1.16414e-010 0 -3.6325e-017
Spine  8.60742 3.07821 0.544431
Spine1  3.57885 5.92981 -11.9598
HEad  -9.72371 21.0581 -17.1811
LeftShoulder1  8.42512 -11.2071 -49.9797
LeftArm  -54.1774 14.2955 -15.0179
LeftForeArm  -16.2763 -46.7636 -12.9782
LeftHand  -0.244104 0.0205437 5.32207
RightShoulder  4.56537 8.31991 32.6715
RightArm  -2.2458 -19.4363 42.016
RightForeArm  1.56238 44.8004 11.0323
RightHand  -1.27432 2.65344 -18.4865
LeftUpLeg  -27.8049 2.45102 -2.9211
LeftLeg  39.6886 3.07669 3.13903
LeftFoot  -0.656589 0.267423 -2.81619
LeftToes  -6.45774e-011 3.08606e-011 -5.1752e-012
